# xmcd
#
# Track frame offsets: 
#        150
#        10869
#        27724
#        44732
#        64183
#        83830
#        101015
#        120302
#        135314
#        150212
#        165676
#        180817
#        198431
#
# Disc length: 2841 seconds
#
# Revision: 0
# Processed by: cddbd v1.4PL0 Copyright (c) Steve Scherf et al.
# Submitted via: ExactAudioCopy v0.90b3
#
DISCID=9c0b170d
DTITLE=Heidi Hauge -  Countrygirl
DYEAR=2002
DGENRE=Country
TTITLE0=I`m Gonna Be A Country Girl Ag
TTITLE1=blue Rose Is
TTITLE2=Blanket On The Ground
TTITLE3=I Don`t Wanna Play House
TTITLE4=That`ll Be Me
TTITLE5=When You Let Go Of Me
TTITLE6=You Got Gold
TTITLE7=Honkey Tonk Angels
TTITLE8=One Way Street
TTITLE9=Don`t Tell Me What To Do
TTITLE10=A Song I Can Sing
TTITLE11=Take Me Back
TTITLE12=Coal Miners Doughter
EXTD=
EXTT0=
EXTT1=
EXTT2=
EXTT3=
EXTT4=
EXTT5=
EXTT6=
EXTT7=
EXTT8=
EXTT9=
EXTT10=
EXTT11=
EXTT12=
PLAYORDER=
